<svg xmlns="http://www.w3.org/2000/svg" viewBox="0 0 480 270" role="img" aria-label="Algorithmic Stock Intelligence"><rect width="480" height="270" fill="#eef2ff"/><g stroke="#dbe1f8" stroke-width="1.5"><line x1="40" y1="80" x2="440" y2="80"/><line x1="40" y1="140" x2="440" y2="140"/><line x1="40" y1="200" x2="440" y2="200"/></g><g><line x1="78" y1="150" x2="78" y2="212" stroke="#16a34a" stroke-width="2"/><rect x="70" y="166" width="16" height="34" fill="#16a34a"/><line x1="118" y1="138" x2="118" y2="206" stroke="#dc2626" stroke-width="2"/><rect x="110" y="150" width="16" height="44" fill="#dc2626"/><line x1="158" y1="120" x2="158" y2="192" stroke="#16a34a" stroke-width="2"/><rect x="150" y="134" width="16" height="40" fill="#16a34a"/><line x1="198" y1="104" x2="198" y2="176" stroke="#16a34a" stroke-width="2"/><rect x="190" y="116" width="16" height="40" fill="#16a34a"/></g><polyline points="78,176 118,160 158,135 198,118 250,98" fill="none" stroke="#4f46e5" stroke-width="4" stroke-linecap="round" stroke-linejoin="round"/><polyline points="250,98 320,70 392,44" fill="none" stroke="#6366f1" stroke-width="4" stroke-linecap="round" stroke-dasharray="6 9"/><path d="M392 44 L375 47 M392 44 L389 61" stroke="#6366f1" stroke-width="4" stroke-linecap="round" fill="none"/></svg>
