<svg xmlns="http://www.w3.org/2000/svg" viewBox="0 0 480 270" role="img" aria-label="Inpersona RAG chatbot"><rect width="480" height="270" fill="#eef2ff"/><g stroke="#a5b4fc" stroke-width="3"><line x1="320" y1="86" x2="392" y2="124"/><line x1="392" y1="124" x2="340" y2="178"/><line x1="320" y1="86" x2="340" y2="178"/><line x1="392" y1="124" x2="430" y2="196"/><line x1="340" y1="178" x2="300" y2="150"/></g><g fill="#6366f1"><circle cx="320" cy="86" r="14"/><circle cx="392" cy="124" r="14"/><circle cx="340" cy="178" r="14"/><circle cx="430" cy="196" r="13"/><circle cx="300" cy="150" r="11"/></g><path d="M70 92 H210 a18 18 0 0 1 18 18 V160 a18 18 0 0 1 -18 18 H110 l-22 22 v-22 H70 a18 18 0 0 1 -18 -18 V110 a18 18 0 0 1 18 -18 Z" fill="#4f46e5"/><g fill="#ffffff"><circle cx="100" cy="135" r="9"/><circle cx="140" cy="135" r="9"/><circle cx="180" cy="135" r="9"/></g><line x1="228" y1="140" x2="286" y2="146" stroke="#6366f1" stroke-width="3" stroke-dasharray="5 7"/></svg>
