<svg width="170" height="48" viewBox="0 0 170 48" fill="none" xmlns="http://www.w3.org/2000/svg">
<mask id="mask0_60_2140" style="mask-type:alpha" maskUnits="userSpaceOnUse" x="0" y="0" width="48" height="48">
<circle cx="24" cy="24" r="24" fill="#D9D9D9"/>
</mask>
<g mask="url(#mask0_60_2140)">
<path d="M3.805 40.1071L1.84999 42.0621L5.76001 45.9721L7.71502 44.0171L3.805 40.1071ZM26.6671 17.2449L3.805 40.1071L7.71502 44.0171L30.5772 21.155L26.6671 17.2449Z" fill="#19D8D8"/>
<path fill-rule="evenodd" clip-rule="evenodd" d="M31.6887 -0.421387V2.34341V12.5583L37.7442 6.50278L39.6992 4.54777L43.6092 8.45779L41.6542 10.4128L35.5984 16.4686H45.9692H48.734V21.9982H45.9692H35.5992L46.6853 33.0832L48.6404 35.0381L44.7306 38.9483L42.7755 36.9934L28.9245 23.1438L28.9234 23.1448L27.779 22.0004H26.1591V21.9982V20.3805L11.3708 5.59217L9.41577 3.63716L13.3258 -0.272854L15.2808 1.68215L26.1591 12.5605V2.34341V-0.421387H31.6887Z" fill="url(#paint0_radial_60_2140)"/>
<path d="M28.9219 48.4195V19.2317" stroke="#19D8D8" stroke-width="5.5296" stroke-miterlimit="10" stroke-linecap="square"/>
<path d="M28.9233 19.2317H0" stroke="#19D8D8" stroke-width="5.5296" stroke-miterlimit="10" stroke-linecap="square"/>
</g>
<path d="M67.6069 33.36C62.6149 33.36 58.8469 29.448 58.8469 24.36C58.8469 19.272 62.6149 15.408 67.6069 15.408C72.5989 15.408 76.3669 19.272 76.3669 24.36C76.3669 29.448 72.5989 33.36 67.6069 33.36ZM67.6069 30.984C71.2549 30.984 73.6309 28.056 73.6309 24.36C73.6309 20.664 71.2549 17.784 67.6069 17.784C63.9589 17.784 61.5829 20.664 61.5829 24.36C61.5829 28.056 63.9589 30.984 67.6069 30.984ZM86.8491 27.768V20.28H89.2731V33H87.0171V30.984C86.3451 32.304 84.8571 33.24 83.1291 33.24C80.5611 33.24 78.7851 31.728 78.7851 28.464V20.28H81.2091V27.984C81.2091 30.192 82.3131 31.104 83.8971 31.104C85.5291 31.104 86.8491 29.76 86.8491 27.768ZM99.8155 30.648V32.784C99.0715 33.12 98.4235 33.24 97.6555 33.24C95.3035 33.24 93.6715 31.968 93.6715 29.16V22.344H90.8635V20.28H93.6715V16.512H96.0955V20.28H99.9355V22.344H96.0955V28.608C96.0955 30.36 96.9355 30.984 98.2315 30.984C98.8075 30.984 99.3115 30.888 99.8155 30.648ZM112.282 29.208C112.282 31.704 110.338 33.24 106.954 33.24C103.594 33.24 101.602 31.584 101.362 28.848H103.69C103.786 30.432 105.058 31.416 107.002 31.416C108.706 31.416 109.834 30.816 109.834 29.616C109.834 28.56 109.186 28.104 107.602 27.792L105.538 27.408C103.186 26.952 101.866 25.752 101.866 23.832C101.866 21.6 103.81 20.04 106.762 20.04C109.81 20.04 111.874 21.672 112.09 24.288H109.762C109.618 22.752 108.49 21.864 106.786 21.864C105.25 21.864 104.218 22.512 104.218 23.616C104.218 24.648 104.866 25.128 106.402 25.416L108.562 25.824C111.082 26.28 112.282 27.384 112.282 29.208ZM127.073 26.64C127.073 30.48 124.865 33.24 121.457 33.24C119.729 33.24 118.265 32.376 117.353 30.84V37.632H114.929V20.28H117.185V22.608C118.097 20.976 119.657 20.04 121.457 20.04C124.841 20.04 127.073 22.8 127.073 26.64ZM124.553 26.64C124.553 23.784 123.041 22.176 120.953 22.176C118.937 22.176 117.353 23.784 117.353 26.64C117.353 29.448 118.913 31.08 120.953 31.08C123.041 31.08 124.553 29.496 124.553 26.64ZM134.762 33.24C131.09 33.24 128.618 30.576 128.618 26.568C128.618 22.8 131.186 20.04 134.69 20.04C138.482 20.04 141.002 23.112 140.57 27.24H131.09C131.282 29.832 132.578 31.344 134.714 31.344C136.514 31.344 137.762 30.36 138.17 28.704H140.57C139.946 31.536 137.762 33.24 134.762 33.24ZM134.642 21.864C132.698 21.864 131.378 23.256 131.114 25.632H138.002C137.882 23.28 136.61 21.864 134.642 21.864ZM148.145 33.24C144.473 33.24 142.001 30.576 142.001 26.568C142.001 22.8 144.569 20.04 148.073 20.04C151.865 20.04 154.385 23.112 153.953 27.24H144.473C144.665 29.832 145.961 31.344 148.097 31.344C149.897 31.344 151.145 30.36 151.553 28.704H153.953C153.329 31.536 151.145 33.24 148.145 33.24ZM148.025 21.864C146.081 21.864 144.761 23.256 144.497 25.632H151.385C151.265 23.28 149.993 21.864 148.025 21.864ZM155.384 26.64C155.384 22.776 157.592 20.04 161.024 20.04C162.728 20.04 164.216 20.904 165.104 22.464V15.768H167.528V33H165.272V30.72C164.36 32.328 162.824 33.24 161.024 33.24C157.592 33.24 155.384 30.456 155.384 26.64ZM157.904 26.64C157.904 29.472 159.392 31.08 161.504 31.08C163.568 31.08 165.104 29.4 165.104 26.592C165.104 23.736 163.52 22.176 161.504 22.176C159.392 22.176 157.904 23.76 157.904 26.64Z" fill="white"/>
<defs>
<radialGradient id="paint0_radial_60_2140" cx="0" cy="0" r="1" gradientUnits="userSpaceOnUse" gradientTransform="translate(29.0749 19.2635) rotate(90) scale(19.6849 19.6591)">
<stop stop-color="#26D0CE" stop-opacity="0.1"/>
<stop offset="1" stop-color="#26D0CE" stop-opacity="0.5"/>
</radialGradient>
</defs>
</svg>
